#!OML:ASF I:\Actors\actors\Patient Classification 1\Patient 1\Session 1\Subject1.ASF
:FULLY-SPECIFIED
:DEGREES
803
root 0.821001 17.4765 8.62862 6.43441 -0.705187 -8.88945
lowerback -4.76546 0.516794 6.07253
upperback -5.80552 0.613504 2.64362
thorax -3.31455 0.136043 -0.651717
lowerneck -2.42339 -4.24643 -3.2553
upperneck 31.9606 -7.50398 5.77955
head 11.0482 -3.22319 1.9273
rclavicle -5.97596e-015 3.63776e-014
rhumerus 1.08174 63.9274 -93.4418
rradius 136.194
rwrist -6.45089
rhand -46.0808 -67.317
rfingers 7.12502
rthumb -18.8234 -623.574
lclavicle -5.97596e-015 3.63776e-014
lhumerus -14.5261 -61.9882 105.081
lradius 132.143
lwrist 21.297
lhand -43.0021 -56.9199
lfingers 7.12502
lthumb -15.8604 -27.5495
rfemur -1.66125 23.7206 26.688
rtibia 4.44931
rfoot -12.9716 -21.6493
rtoes 0.954351
lfemur 7.2321 -40.6621 -12.1846
ltibia -3.74309
lfoot -17.9115 47.6419
ltoes 4.82264
804
root 0.820358 17.4748 8.63731 6.439 -0.785184 -8.86249
lowerback -4.93757 0.539609 6.03343
upperback -5.83161 0.630254 2.59521
thorax -3.24395 0.146024 -0.67858
lowerneck -2.34047 -4.23445 -2.98511
upperneck 32.318 -7.50713 5.62954
head 11.1565 -3.2051 1.83012
rclavicle 1.51573e-015 -1.26228e-014
rhumerus 3.58647 64.8277 -90.9802
rradius 136.465
rwrist -6.68282
rhand -46.9401 -68.7537
rfingers 7.12502
rthumb -19.6497 -622.219
lclavicle 1.51573e-015 -1.26228e-014
lhumerus -15.3363 -61.9671 105.811
lradius 132.275
lwrist 20.7485
lhand -42.6024 -55.1547
lfingers 7.12502
lthumb -15.4754 -25.7541
rfemur -1.62915 23.7029 26.6586
rtibia 4.4171
rfoot -12.9647 -21.5683
rtoes 1.04696
lfemur 7.41027 -40.7893 -12.3453
ltibia -3.81461
lfoot -17.8965 47.8531
ltoes 4.55373
805
root 0.820688 17.4731 8.64573 6.44427 -0.853903 -8.89131
lowerback -5.08129 1.00953 6.39893
upperback -5.82915 1.22387 2.08753
thorax -3.11345 0.421676 -1.39098
lowerneck -2.50894 -4.667 -2.38615
upperneck 32.716 -8.27842 5.75389
head 11.3764 -3.45665 1.68881
rclavicle -7.7526e-015 -2.10712e-014
rhumerus 4.66851 64.1263 -89.8632
rradius 136.75
rwrist -6.68591
rhand -47.8986 -69.5163
rfingers 7.12502
rthumb -20.571 -621.554
lclavicle -7.7526e-015 -2.10712e-014
lhumerus -16.2141 -63.2869 106.658
lradius 132.524
lwrist 20.4639
lhand -42.649 -52.9932
lfingers 7.12502
lthumb -15.5203 -23.5961
rfemur -1.59056 23.6943 26.6982
rtibia 4.38348
rfoot -12.9264 -21.4997
rtoes 1.08666
lfemur 7.5985 -40.957 -12.4511
ltibia -3.89537
lfoot -18.0865 48.0704
ltoes 4.67763
806
root 0.821628 17.4715 8.65215 6.45656 -0.892865 -8.96427
lowerback -5.22989 0.699204 6.23507
upperback -5.88981 0.814116 2.52874
thorax -3.12998 0.230837 -0.852409
lowerneck -1.95675 -4.38896 -2.23569
upperneck 32.7635 -7.6611 4.95857
head 11.2066 -3.25919 1.45001
rclavicle -1.14798e-014 1.61016e-014
rhumerus 4.39719 65.4269 -90.0976
rradius 137.08
rwrist -7.13699
rhand -48.224 -70.3777
rfingers 7.12502
rthumb -20.8837 -620.726
lclavicle -1.14798e-014 1.61016e-014
lhumerus -16.8855 -62.4636 107.376
lradius 132.903
lwrist 20.2263
lhand -42.6151 -51.3043
lfingers 7.12502
lthumb -15.4876 -21.9047
rfemur -1.56404 23.708 26.7905
rtibia 4.37779
rfoot -12.9273 -21.4663
rtoes 0.866267
lfemur 7.71451 -41.0944 -12.4583
ltibia -3.94496
lfoot -18.275 48.2469
ltoes 4.92463
807
root 0.821935 17.4701 8.65755 6.48453 -0.925526 -9.03847
lowerback -5.34731 0.763585 6.35711
upperback -5.93065 0.887956 2.50795
thorax -3.10223 0.262813 -0.938414
lowerneck -1.99523 -4.39569 -2.56897
upperneck 33.3079 -7.77065 5.28873
head 11.4696 -3.30109 1.62058
rclavicle 1.2424e-015 4.27387e-014
rhumerus 2.59261 65.2405 -91.9792
rradius 137.203
rwrist -7.17216
rhand -47.7115 -70.1201
rfingers 7.12502
rthumb -20.3912 -620.931
lclavicle 1.2424e-015 4.27387e-014
lhumerus -17.6958 -62.9824 108.08
lradius 133.19
lwrist 19.9235
lhand -43.066 -50.571
lfingers 7.12502
lthumb -15.9219 -21.2055
rfemur -1.58174 23.702 26.8674
rtibia 4.39257
rfoot -12.9286 -21.4183
rtoes 0.686982
lfemur 7.7127 -41.0904 -12.3736
ltibia -3.9417
lfoot -18.3106 48.2951
ltoes 4.98017
808
root 0.821356 17.4685 8.66322 6.51459 -0.970199 -9.07947
lowerback -5.49495 0.79063 6.39592
upperback -5.951 0.911019 2.52353
thorax -3.03987 0.27449 -0.941558
lowerneck -2.01584 -4.3674 -2.8504
upperneck 33.7895 -7.83068 5.60685
head 11.702 -3.31775 1.78548
rclavicle -4.17448e-015 3.89618e-014
rhumerus 2.96664 65.3941 -91.5094
rradius 137.356
rwrist -6.93275
rhand -46.6197 -70.6775
rfingers 7.12502
rthumb -19.3417 -620.264
lclavicle -4.17448e-015 3.89618e-014
lhumerus -17.8164 -62.8962 108.086
lradius 133.233
lwrist 20.5744
lhand -42.0769 -52.4935
lfingers 7.12502
lthumb -14.9692 -23.0545
rfemur -1.59985 23.7466 26.9037
rtibia 4.38143
rfoot -12.9686 -21.39
rtoes 0.967523
lfemur 7.7146 -41.0826 -12.322
ltibia -3.93538
lfoot -18.4892 48.2991
ltoes 5.26909
809
root 0.820445 17.4666 8.66962 6.51803 -1.02843 -9.06922
lowerback -5.64033 0.866146 6.42195
upperback -5.95309 0.996668 2.46774
thorax -2.95436 0.317322 -1.00941
lowerneck -2.08261 -4.38491 -2.9925
upperneck 34.2692 -7.96329 5.88129
head 11.9432 -3.35344 1.90271
rclavicle -7.72775e-015 5.1684e-015
rhumerus 3.31318 65.4065 -91.0345
rradius 137.515
rwrist -6.68111
rhand -46.0535 -70.9157
rfingers 7.12502
rthumb -18.7972 -619.973
lclavicle -7.72775e-015 5.1684e-015
lhumerus -17.8667 -63.1105 107.969
lradius 133.168
lwrist 20.7421
lhand -41.639 -54.1198
lfingers 7.12502
lthumb -14.5474 -24.6499
rfemur -1.55976 23.8253 26.9072
rtibia 4.35874
rfoot -13.0475 -21.3824
rtoes 1.25686
lfemur 7.83493 -41.1966 -12.4256
ltibia -3.95508
lfoot -18.9113 48.3965
ltoes 5.79367
810
root 0.819624 17.4656 8.67595 6.4903 -1.08872 -8.98158
lowerback -5.75018 0.930335 6.37223
upperback -5.94067 1.0717 2.39095
thorax -2.87392 0.357287 -1.05738
lowerneck -2.25034 -4.40044 -2.94014
upperneck 34.8267 -8.06237 5.9516
head 12.2207 -3.36781 1.9115
rclavicle 1.09829e-014 4.11484e-014
rhumerus 3.69509 65.7823 -90.4703
rradius 137.714
rwrist -6.95268
rhand -47.1228 -70.9691
rfingers 7.12502
rthumb -19.8253 -620.022
lclavicle 1.09829e-014 4.11484e-014
lhumerus -17.8755 -63.5994 107.767
lradius 133.209
lwrist 20.7186
lhand -41.7425 -54.7567
lfingers 7.12502
lthumb -14.6471 -25.294
rfemur -1.48523 23.8216 26.833
rtibia 4.33666
rfoot -13.0186 -21.3583
rtoes 0.892128
lfemur 7.9698 -41.2411 -12.6388
ltibia -3.95981
lfoot -19.0671 48.4773
ltoes 5.88204
811
root 0.819501 17.4655 8.67997 6.4663 -1.11895 -8.89832
lowerback -5.83319 0.556058 5.99558
upperback -5.96683 0.58778 2.82745
thorax -2.89063 0.137173 -0.412161
lowerneck -1.79848 -3.96153 -2.8785
upperneck 34.8024 -7.20202 5.2422
head 12.0272 -3.06599 1.73642
rclavicle -2.36057e-015 -4.07509e-014
rhumerus 4.08464 67.2901 -89.9301
rradius 137.898
rwrist -7.44705
rhand -47.2529 -72.5993
rfingers 7.12502
rthumb -19.9504 -618.405
lclavicle -2.36057e-015 -4.07509e-014
lhumerus -17.635 -62.9183 107.38
lradius 133.264
lwrist 20.1578
lhand -42.2648 -54.7304
lfingers 7.12502
lthumb -15.1502 -25.3049
rfemur -1.43983 23.7724 26.7432
rtibia 4.31329
rfoot -12.9659 -21.3108
rtoes 0.658855
lfemur 8.0211 -41.1912 -12.7794
ltibia -3.95712
lfoot -18.8476 48.4902
ltoes 5.53323
812
root 0.818829 17.4654 8.68233 6.45625 -1.10682 -8.88396
lowerback -5.86028 0.60492 5.91646
upperback -5.96048 0.652703 2.8121
thorax -2.86531 0.172925 -0.381819
lowerneck -1.77116 -3.98691 -2.69274
upperneck 34.9192 -7.23895 5.1434
head 12.0614 -3.06759 1.66421
rclavicle 1.34304e-014 -6.35117e-014
rhumerus 7.07353 67.8011 -86.7292
rradius 138.217
rwrist -7.74433
rhand -46.8314 -74.9531
rfingers 7.12502
rthumb -19.5452 -616.009
lclavicle 1.34304e-014 -6.35117e-014
lhumerus -17.4689 -63.458 107.094
lradius 133.314
lwrist 19.8692
lhand -42.7628 -54.3534
lfingers 7.12502
lthumb -15.6299 -24.9648
rfemur -1.41977 23.7575 26.7314
rtibia 4.31739
rfoot -13.0103 -21.2886
rtoes 0.934431
lfemur 8.05837 -41.2364 -12.8255
ltibia -3.95832
lfoot -18.9214 48.5045
ltoes 5.61388
813
root 0.816919 17.4651 8.68404 6.43577 -1.08695 -8.90232
lowerback -5.86165 0.647328 5.94385
upperback -5.95372 0.707535 2.79549
thorax -2.85448 0.199417 -0.412354
lowerneck -1.90115 -3.99961 -2.63954
upperneck 35.1999 -7.26008 5.07221
head 12.2029 -3.06974 1.62498
rclavicle -7.98866e-015 2.33572e-014
rhumerus 8.18439 67.8791 -85.5453
rradius 138.493
rwrist -7.67128
rhand -45.8731 -76.2704
rfingers 7.12502
rthumb -18.6237 -614.601
lclavicle -7.98866e-015 2.33572e-014
lhumerus -17.3387 -63.8427 106.85
lradius 133.366
lwrist 19.7739
lhand -42.9449 -54.1501
lfingers 7.12502
lthumb -15.8053 -24.7753
rfemur -1.39288 23.7868 26.7781
rtibia 4.34417
rfoot -13.0583 -21.3254
rtoes 1.22776
lfemur 8.08337 -41.2551 -12.8215
ltibia -3.94238
lfoot -19.0899 48.5037
ltoes 5.76374
814
root 0.815333 17.4652 8.6844 6.43187 -1.05124 -8.92104
lowerback -5.85806 0.690023 6.00952
upperback -5.94482 0.761601 2.77053
thorax -2.84397 0.224004 -0.47283
lowerneck -2.22527 -4.04121 -2.66393
upperneck 35.6238 -7.33298 5.02884
head 12.4547 -3.09535 1.60043
rclavicle 3.00662e-015 -1.42131e-014
rhumerus 7.21947 67.1615 -86.6373
rradius 138.66
rwrist -6.58638
rhand -43.3289 -74.9551
rfingers 7.12502
rthumb -16.1751 -615.7
lclavicle 3.00662e-015 -1.42131e-014
lhumerus -17.2014 -64.1599 106.662
lradius 133.411
lwrist 19.75
lhand -42.9577 -54.6137
lfingers 7.12502
lthumb -15.8176 -25.2398
rfemur -1.38276 23.8531 26.8199
rtibia 4.35022
rfoot -13.0908 -21.4033
rtoes 1.60621
lfemur 8.03889 -41.2151 -12.7649
ltibia -3.92117
lfoot -18.9527 48.4918
ltoes 5.49943
815
root 0.814147 17.4654 8.68402 6.45245 -0.967695 -8.94723
lowerback -5.8604 0.723954 6.08942
upperback -5.9442 0.803484 2.74076
thorax -2.83925 0.241669 -0.546497
lowerneck -2.60148 -4.10805 -2.79877
upperneck 36.0614 -7.49905 5.19331
head 12.7473 -3.15156 1.66387
rclavicle -1.70209e-015 -1.26228e-014
rhumerus 4.41358 65.0766 -89.7937
rradius 138.823
rwrist -3.61081
rhand -36.5619 -70.5008
rfingers 7.12502
rthumb -9.65194 -619.74
lclavicle -1.70209e-015 -1.26228e-014
lhumerus -15.838 -62.8537 105.428
lradius 133.462
lwrist 17.0016
lhand -39.111 -42.611
lfingers 7.12502
lthumb -12.1107 -12.9815
rfemur -1.39985 23.8759 26.8564
rtibia 4.34579
rfoot -13.1226 -21.4853
rtoes 1.73503
lfemur 7.9715 -41.2601 -12.6778
ltibia -3.91776
lfoot -18.8415 48.459
ltoes 5.37402
816
root 0.813216 17.4662 8.68289 6.46893 -0.86505 -8.93222
lowerback -5.82944 0.746938 6.13759
upperback -5.96378 0.835737 2.69481
thorax -2.87453 0.254053 -0.619941
lowerneck -2.53538 -4.15208 -2.67798
upperneck 35.8973 -7.5501 5.14186
head 12.6569 -3.168 1.61676
rclavicle 8.00108e-015 2.08724e-015
rhumerus 4.17961 64.4157 -90.2647
rradius 138.704
rwrist -3.02535
rhand -35.5899 -69.6763
rfingers 7.12502
rthumb -8.71405 -620.524
lclavicle 8.00108e-015 2.08724e-015
lhumerus -16.3882 -63.9849 105.985
lradius 134.446
lwrist 18.0846
lhand -41.7136 -39.3843
lfingers 7.12502
lthumb -14.6192 -9.91956
rfemur -1.42755 23.8322 26.8361
rtibia 4.35638
rfoot -13.1515 -21.5429
rtoes 1.6211
lfemur 7.88234 -41.2648 -12.6196
ltibia -3.91019
lfoot -18.7255 48.3502
ltoes 5.26654
817
root 0.812491 17.4684 8.68136 6.49074 -0.759128 -8.86909
lowerback -5.76216 0.766144 6.16315
upperback -6.00736 0.868015 2.63177
thorax -2.95499 0.265393 -0.698898
lowerneck -2.3739 -4.18695 -2.60833
upperneck 35.6283 -7.61162 5.20907
head 12.5102 -3.18646 1.62516
rclavicle -4.02539e-015 3.57812e-015
rhumerus 3.8429 63.9861 -90.7866
rradius 138.658
rwrist -2.64907
rhand -35.0522 -68.9064
rfingers 7.12502
rthumb -8.19511 -621.273
lclavicle -4.02539e-015 3.57812e-015
lhumerus -16.3774 -64.0365 106.088
lradius 134.419
lwrist 18.0701
lhand -41.5919 -39.3707
lfingers 7.12502
lthumb -14.502 -9.89752
rfemur -1.44215 23.8147 26.7614
rtibia 4.33889
rfoot -13.1598 -21.6427
rtoes 1.53931
lfemur 7.76035 -41.2603 -12.611
ltibia -3.87931
lfoot -18.5357 48.2713
ltoes 5.08651
